<svg xmlns="http://www.w3.org/2000/svg" xmlns:xlink="http://www.w3.org/1999/xlink" width="180" zoomAndPan="magnify" viewBox="0 0 135 30.000001" height="40" preserveAspectRatio="xMidYMid meet" version="1.2"><defs><clipPath id="0e7ed459df"><path d="M 2.175781 0 L 132.820312 0 L 132.820312 29.03125 L 2.175781 29.03125 Z M 2.175781 0 "/></clipPath><clipPath id="01990554a8"><path d="M 10.164062 0.988281 L 61.699219 0.988281 L 61.699219 27.84375 L 10.164062 27.84375 Z M 10.164062 0.988281 "/></clipPath><clipPath id="0f3b5ab3bf"><path d="M 66.253906 5.253906 L 124.835938 5.253906 L 124.835938 19.058594 L 66.253906 19.058594 Z M 66.253906 5.253906 "/></clipPath><clipPath id="e71c8b4477"><path d="M 66.253906 5.253906 L 124.125 5.253906 L 124.125 18.890625 L 66.253906 18.890625 Z M 66.253906 5.253906 "/></clipPath></defs><g id="e14fedc867"><g clip-rule="nonzero" clip-path="url(#0e7ed459df)"><path style=" stroke:none;fill-rule:nonzero;fill:#ffffff;fill-opacity:1;" d="M 2.175781 0 L 132.824219 0 L 132.824219 29.03125 L 2.175781 29.03125 Z M 2.175781 0 "/><path style=" stroke:none;fill-rule:nonzero;fill:#ffffff;fill-opacity:1;" d="M 2.175781 0 L 132.824219 0 L 132.824219 29.03125 L 2.175781 29.03125 Z M 2.175781 0 "/></g><path style=" stroke:none;fill-rule:nonzero;fill:#29853a;fill-opacity:1;" d="M 18.839844 14.484375 C 18.839844 14.484375 18.988281 14.703125 18.9375 14.855469 C 18.886719 15.003906 18.722656 15.59375 18.722656 15.59375 C 18.722656 15.59375 19.097656 15.128906 19.085938 14.898438 C 19.074219 14.699219 18.839844 14.484375 18.839844 14.484375 Z M 33.046875 10.117188 C 33.046875 10.117188 33.214844 9.363281 33.242188 9.167969 C 33.269531 8.972656 33.386719 8.757812 33.386719 8.757812 C 33.386719 8.757812 33.210938 8.945312 33.054688 9.175781 C 32.875 9.441406 33.046875 10.117188 33.046875 10.117188 Z M 22.03125 13.113281 C 22.03125 13.113281 21.347656 13.832031 21.332031 14.21875 C 21.320312 14.550781 21.679688 14.941406 21.679688 14.941406 C 21.679688 14.941406 21.464844 14.550781 21.574219 14.308594 C 21.679688 14.070312 22.03125 13.113281 22.03125 13.113281 Z M 20.53125 11.480469 C 20.53125 11.480469 20.699219 10.722656 20.726562 10.527344 C 20.753906 10.332031 20.871094 10.117188 20.871094 10.117188 C 20.871094 10.117188 20.695312 10.304688 20.539062 10.535156 C 20.359375 10.804688 20.53125 11.480469 20.53125 11.480469 Z M 19.285156 17.214844 C 19.285156 17.214844 19.898438 17.453125 20.007812 17.832031 C 20.113281 18.210938 20.625 19.644531 20.625 19.644531 C 20.625 19.644531 20.722656 18.164062 20.371094 17.707031 C 20.066406 17.316406 19.285156 17.214844 19.285156 17.214844 Z M 28.4375 11.386719 C 28.261719 11.515625 27.613281 12.058594 27.613281 12.058594 C 27.613281 12.058594 28.40625 11.820312 28.574219 11.550781 C 28.71875 11.316406 28.621094 10.890625 28.621094 10.890625 C 28.621094 10.890625 28.617188 11.257812 28.4375 11.386719 Z M 52.832031 20.410156 C 52.589844 19.921875 52.3125 19.527344 52.3125 19.527344 C 52.3125 19.527344 52.496094 19.976562 52.53125 20.386719 C 52.566406 20.796875 52.144531 22.160156 52.144531 22.160156 C 52.144531 22.160156 53.113281 20.96875 52.832031 20.410156 Z M 50.226562 7.382812 C 49.980469 7.269531 49.570312 7.414062 49.570312 7.414062 C 49.570312 7.414062 49.929688 7.378906 50.078125 7.539062 C 50.226562 7.695312 50.839844 8.269531 50.839844 8.269531 C 50.839844 8.269531 50.511719 7.519531 50.226562 7.382812 Z M 51.726562 15.148438 C 51.726562 15.148438 51.875 15.367188 51.824219 15.515625 C 51.769531 15.667969 51.609375 16.257812 51.609375 16.257812 C 51.609375 16.257812 51.984375 15.792969 51.972656 15.5625 C 51.960938 15.359375 51.726562 15.148438 51.726562 15.148438 Z M 34.402344 12.433594 C 34.402344 12.433594 34.414062 12.433594 34.441406 12.429688 C 34.417969 12.429688 34.402344 12.429688 34.402344 12.433594 Z M 34.441406 12.429688 C 34.539062 12.429688 34.785156 12.445312 35.027344 12.480469 C 35.347656 12.507812 35.660156 12.5625 35.855469 12.316406 C 36.179688 11.910156 36.554688 11.433594 36.550781 11.433594 C 36.546875 11.4375 36.085938 11.84375 35.765625 12.050781 C 35.4375 12.253906 34.632812 12.40625 34.441406 12.429688 Z M 34.441406 12.429688 "/><g clip-rule="nonzero" clip-path="url(#01990554a8)"><path style=" stroke:none;fill-rule:nonzero;fill:#29853a;fill-opacity:1;" d="M 18.738281 20.121094 C 18.738281 20.117188 18.738281 20.117188 18.738281 20.117188 C 18.738281 20.117188 18.738281 20.117188 18.738281 20.121094 Z M 10.960938 25.203125 C 11.011719 25.207031 11.054688 25.214844 11.097656 25.226562 C 11 25.3125 10.910156 25.429688 10.839844 25.539062 C 10.714844 25.730469 10.652344 25.898438 10.644531 25.914062 C 10.652344 25.902344 10.714844 25.765625 10.824219 25.640625 C 10.933594 25.503906 11.085938 25.382812 11.203125 25.402344 C 11.273438 25.410156 11.347656 25.492188 11.417969 25.59375 C 11.425781 25.648438 11.421875 25.691406 11.421875 25.691406 L 11.53125 25.890625 C 11.214844 26.027344 11.070312 26.132812 11.109375 26.191406 C 11.28125 26.453125 14.054688 25.917969 18.566406 25.335938 C 23.074219 24.757812 29.316406 24.136719 36.300781 24.285156 C 43.273438 24.402344 49.554688 25.253906 54.003906 26.136719 C 58.464844 27.015625 61.132812 27.84375 61.171875 27.78125 C 61.199219 27.75 58.609375 26.8125 54.15625 25.722656 C 50.484375 24.824219 45.484375 23.882812 39.800781 23.410156 C 40.621094 23.222656 41.324219 22.710938 41.761719 22.019531 C 44.640625 22.265625 48.394531 22.46875 49.714844 22 C 50.03125 21.882812 50.273438 21.578125 50.453125 21.136719 L 46.941406 20.980469 L 50.554688 20.84375 C 50.695312 20.390625 50.785156 19.832031 50.839844 19.207031 L 47.203125 19.046875 L 50.859375 18.910156 C 50.894531 18.351562 50.90625 17.746094 50.894531 17.125 L 47.890625 17.222656 L 50.886719 16.878906 C 50.867188 16.160156 50.824219 15.417969 50.765625 14.695312 L 48.378906 15.242188 L 50.75 14.492188 C 50.703125 13.929688 50.648438 13.382812 50.589844 12.867188 L 48.644531 13.445312 L 50.570312 12.695312 C 50.496094 12.035156 50.417969 11.429688 50.34375 10.914062 L 49.214844 11.441406 L 50.328125 10.808594 C 50.246094 10.214844 50.175781 9.757812 50.132812 9.503906 L 50.707031 9.09375 C 50.824219 9.007812 50.8125 8.789062 50.679688 8.605469 C 50.546875 8.417969 50.347656 8.335938 50.226562 8.421875 L 39.59375 16.003906 C 39.328125 15.867188 38.722656 15.796875 36.921875 16.25 L 44.164062 9.828125 C 44.207031 9.835938 44.253906 9.839844 44.300781 9.839844 C 44.722656 9.839844 45.0625 9.5 45.0625 9.078125 C 45.0625 9.0625 45.0625 9.050781 45.0625 9.035156 L 52.679688 2.277344 L 60.675781 2.277344 L 60.675781 2.339844 C 60.675781 2.449219 60.761719 2.539062 60.863281 2.539062 L 61.246094 2.539062 C 61.351562 2.539062 61.433594 2.449219 61.433594 2.339844 L 61.433594 1.183594 C 61.433594 1.078125 61.351562 0.988281 61.246094 0.988281 L 60.863281 0.988281 C 60.761719 0.988281 60.675781 1.078125 60.675781 1.183594 L 60.675781 1.214844 L 52.496094 1.214844 L 44.464844 8.335938 C 44.410156 8.324219 44.355469 8.316406 44.300781 8.316406 C 43.878906 8.316406 43.539062 8.660156 43.539062 9.078125 C 43.539062 9.101562 43.539062 9.128906 43.542969 9.152344 L 34.878906 16.832031 C 34.789062 16.859375 34.699219 16.890625 34.613281 16.914062 L 34.613281 16.078125 L 34.636719 16.078125 C 34.859375 16.078125 35.035156 15.882812 35.035156 15.640625 L 35.035156 15.167969 C 35.035156 14.925781 34.859375 14.730469 34.636719 14.730469 L 34.382812 14.730469 L 34.382812 13.945312 C 34.382812 13.679688 34.164062 13.460938 33.898438 13.460938 L 33.8125 13.460938 L 33.8125 12.863281 C 33.8125 12.855469 33.8125 12.851562 33.8125 12.847656 C 33.8125 12.84375 33.8125 12.839844 33.8125 12.835938 C 33.8125 12.488281 33.53125 12.203125 33.183594 12.203125 C 32.949219 12.203125 32.742188 12.332031 32.632812 12.523438 C 32.308594 12.59375 32.246094 12.871094 32.246094 13.121094 L 32.246094 13.460938 L 29.425781 13.460938 C 29.417969 13.460938 29.414062 13.460938 29.414062 13.460938 L 29.34375 13.460938 C 28.6875 13.460938 27.984375 13.636719 27.359375 13.957031 C 26.929688 14.175781 26.574219 14.445312 26.328125 14.730469 L 26.046875 14.730469 C 25.828125 14.730469 25.648438 14.925781 25.648438 15.167969 L 25.648438 15.640625 C 25.648438 15.882812 25.828125 16.078125 26.046875 16.078125 L 26.417969 16.078125 L 26.417969 18.351562 C 26.417969 18.597656 26.617188 18.800781 26.867188 18.800781 L 28.105469 18.800781 L 26.457031 19.027344 L 26.457031 19.457031 L 26.910156 19.457031 C 26.535156 19.582031 26.183594 19.695312 25.863281 19.800781 C 25.554688 19.605469 25.1875 19.488281 24.792969 19.488281 C 23.691406 19.488281 22.796875 20.386719 22.796875 21.488281 C 22.796875 22.421875 23.429688 23.203125 24.292969 23.425781 C 23.492188 23.496094 22.71875 23.578125 21.976562 23.664062 C 21.953125 23.296875 21.953125 22.855469 22.152344 22.707031 C 22.21875 22.660156 22.351562 22.699219 22.449219 22.730469 C 22.539062 22.753906 22.605469 22.789062 22.609375 22.789062 C 22.605469 22.789062 22.535156 22.742188 22.421875 22.699219 C 22.355469 22.671875 22.277344 22.644531 22.195312 22.628906 C 22.21875 22.621094 22.25 22.609375 22.285156 22.601562 C 22.625 22.527344 22.875 22.625 22.875 22.625 C 22.875 22.625 22.730469 22.429688 22.488281 22.382812 C 22.179688 22.3125 21.351562 22.585938 21.359375 22.605469 C 21.359375 22.605469 21.386719 22.433594 21.480469 22.300781 C 21.570312 22.15625 22.101562 21.957031 22.105469 21.96875 C 22.101562 21.960938 21.460938 22.03125 21.261719 22.117188 C 21.109375 22.160156 20.882812 22.40625 20.773438 22.53125 C 20.761719 22.523438 20.746094 22.507812 20.726562 22.496094 C 20.789062 21.929688 20.871094 21.402344 20.972656 20.90625 C 20.582031 21.191406 20.226562 21.554688 19.914062 21.996094 C 19.910156 21.992188 19.910156 21.992188 19.90625 21.992188 C 19.90625 21.609375 19.933594 21.261719 20.019531 21.097656 C 20.234375 20.664062 20.75 20.382812 20.792969 20.367188 C 20.742188 20.378906 20.070312 20.523438 19.503906 20.980469 C 19.296875 21.140625 19.164062 21.441406 19.089844 21.789062 C 19.050781 21.792969 19.015625 21.796875 18.984375 21.804688 C 18.976562 21.792969 18.972656 21.785156 18.964844 21.777344 C 18.832031 21.605469 18.761719 21.347656 18.730469 21.082031 C 18.867188 20.847656 18.992188 20.679688 18.992188 20.679688 C 18.992188 20.679688 18.878906 20.773438 18.714844 20.929688 C 18.683594 20.523438 18.726562 20.152344 18.738281 20.121094 C 18.71875 20.136719 18.539062 20.261719 18.410156 20.535156 C 18.3125 20.738281 18.242188 21.023438 18.265625 21.375 C 18.214844 21.433594 18.164062 21.492188 18.109375 21.550781 C 18.042969 21.628906 17.984375 21.722656 17.933594 21.835938 C 17.835938 21.75 17.738281 21.675781 17.636719 21.621094 C 17.523438 21.554688 17.410156 21.496094 17.296875 21.4375 C 17.25 20.910156 17.261719 20.464844 17.261719 20.464844 C 17.261719 20.464844 17.046875 20.75 16.90625 21.238281 C 16.863281 21.21875 16.824219 21.199219 16.78125 21.179688 C 16.785156 21.097656 16.792969 21.023438 16.800781 20.960938 C 16.957031 20.042969 17.433594 19.078125 17.433594 19.078125 C 17.433594 19.078125 16.769531 19.878906 16.15625 20.902344 C 16.019531 20.84375 15.941406 20.8125 15.941406 20.8125 C 15.941406 20.8125 16.015625 20.859375 16.132812 20.941406 C 15.910156 21.328125 15.796875 21.921875 15.75 22.554688 C 15.648438 22.308594 15.550781 22.007812 15.46875 21.636719 C 15.070312 19.898438 13.832031 19.21875 13.832031 19.21875 C 13.832031 19.21875 14.808594 20.96875 14.683594 21.863281 C 14.671875 21.949219 14.667969 22.039062 14.664062 22.128906 C 14.300781 21.5625 13.894531 21.054688 13.492188 20.820312 C 12.457031 20.207031 11.476562 19.816406 11.476562 19.816406 C 11.476562 19.816406 12.359375 20.433594 12.933594 21.167969 C 13.148438 21.441406 13.417969 22.054688 13.671875 22.710938 L 11.597656 20.941406 L 13.035156 24.261719 C 13.035156 24.261719 12.3125 23.644531 12.003906 23.570312 C 11.695312 23.5 10.789062 23.492188 10.789062 23.492188 C 10.789062 23.492188 11.628906 23.820312 11.839844 24.070312 C 12.050781 24.320312 12.195312 24.675781 12.195312 24.675781 C 12.195312 24.675781 10.917969 24.457031 10.542969 24.703125 C 10.242188 24.898438 10.175781 25.554688 10.175781 25.554688 C 10.175781 25.554688 10.453125 25.175781 10.960938 25.203125 Z M 43.824219 9.078125 C 43.824219 8.816406 44.039062 8.605469 44.300781 8.605469 C 44.5625 8.605469 44.773438 8.816406 44.773438 9.078125 C 44.773438 9.339844 44.5625 9.554688 44.300781 9.554688 C 44.039062 9.554688 43.824219 9.339844 43.824219 9.078125 Z M 27.332031 17.390625 C 27.332031 17.382812 27.441406 17.375 27.574219 17.375 C 27.707031 17.375 27.8125 17.382812 27.8125 17.390625 C 27.8125 17.402344 27.707031 17.410156 27.574219 17.410156 C 27.441406 17.410156 27.332031 17.402344 27.332031 17.390625 Z M 27.332031 17.195312 C 27.332031 17.1875 27.441406 17.179688 27.574219 17.179688 C 27.707031 17.179688 27.8125 17.1875 27.8125 17.195312 C 27.8125 17.203125 27.707031 17.210938 27.574219 17.210938 C 27.441406 17.210938 27.332031 17.203125 27.332031 17.195312 Z M 27.332031 17 C 27.332031 16.992188 27.441406 16.984375 27.574219 16.984375 C 27.707031 16.984375 27.8125 16.992188 27.8125 17 C 27.8125 17.007812 27.707031 17.015625 27.574219 17.015625 C 27.441406 17.015625 27.332031 17.007812 27.332031 17 Z M 27.332031 16.804688 C 27.332031 16.792969 27.441406 16.789062 27.574219 16.789062 C 27.707031 16.789062 27.8125 16.792969 27.8125 16.804688 C 27.8125 16.8125 27.707031 16.820312 27.574219 16.820312 C 27.441406 16.820312 27.332031 16.8125 27.332031 16.804688 Z M 27.332031 16.609375 C 27.332031 16.597656 27.441406 16.589844 27.574219 16.589844 C 27.707031 16.589844 27.8125 16.597656 27.8125 16.609375 C 27.8125 16.617188 27.707031 16.625 27.574219 16.625 C 27.441406 16.625 27.332031 16.617188 27.332031 16.609375 Z M 27.277344 16.214844 C 27.300781 16.171875 27.347656 16.144531 27.402344 16.144531 L 28.320312 16.144531 C 28.402344 16.144531 28.46875 16.210938 28.46875 16.292969 L 28.46875 17.847656 C 28.46875 17.890625 28.445312 17.933594 28.414062 17.960938 L 28.414062 16.378906 C 28.414062 16.285156 28.335938 16.210938 28.234375 16.210938 L 27.277344 16.210938 Z M 34.207031 14.730469 L 26.566406 14.730469 C 27.140625 14.148438 28.230469 13.636719 29.34375 13.636719 L 29.417969 13.636719 C 29.421875 13.636719 29.421875 13.636719 29.425781 13.636719 L 33.898438 13.636719 C 34.070312 13.636719 34.207031 13.777344 34.207031 13.945312 Z M 39.644531 17.203125 C 39.464844 17.167969 39.277344 17.152344 39.089844 17.152344 C 37.339844 17.152344 35.921875 18.570312 35.921875 20.320312 C 35.921875 21.28125 36.347656 22.140625 37.023438 22.722656 L 26.367188 22.722656 C 26.636719 22.382812 26.792969 21.957031 26.792969 21.488281 C 26.792969 20.871094 26.515625 20.320312 26.074219 19.953125 L 28.316406 19.21875 L 29.699219 20.109375 L 32.289062 20.109375 L 29.796875 19.863281 L 28.632812 19.113281 L 33.433594 17.53125 C 33.433594 17.53125 33.859375 17.382812 34.492188 17.175781 L 33.355469 18.183594 C 33.292969 18.167969 33.222656 18.160156 33.15625 18.160156 C 32.710938 18.160156 32.347656 18.519531 32.347656 18.96875 C 32.347656 19.414062 32.710938 19.777344 33.15625 19.777344 C 33.601562 19.777344 33.964844 19.414062 33.964844 18.96875 C 33.964844 18.9375 33.960938 18.90625 33.960938 18.878906 L 36.578125 16.558594 C 38.117188 16.144531 39.644531 15.875 39.644531 16.410156 L 39.644531 16.496094 C 38.621094 16.296875 37.511719 16.550781 36.699219 17.269531 C 35.941406 17.941406 35.601562 18.871094 35.695312 19.777344 C 35.730469 19 36.078125 18.238281 36.726562 17.660156 C 37.535156 16.945312 38.625 16.683594 39.644531 16.863281 Z M 33.15625 19.445312 C 32.890625 19.445312 32.679688 19.230469 32.679688 18.96875 C 32.679688 18.703125 32.890625 18.488281 33.15625 18.488281 C 33.417969 18.488281 33.632812 18.703125 33.632812 18.96875 C 33.632812 19.230469 33.417969 19.445312 33.15625 19.445312 Z M 39.089844 22.378906 C 37.953125 22.378906 37.03125 21.457031 37.03125 20.320312 C 37.03125 19.183594 37.953125 18.265625 39.089844 18.265625 C 40.226562 18.265625 41.144531 19.183594 41.144531 20.320312 C 41.144531 21.457031 40.226562 22.378906 39.089844 22.378906 Z M 25.601562 23.320312 C 25.816406 23.226562 26.011719 23.09375 26.175781 22.933594 L 37.296875 22.933594 C 37.492188 23.070312 37.710938 23.183594 37.9375 23.273438 C 37.359375 23.234375 36.773438 23.203125 36.1875 23.179688 C 32.402344 23.003906 28.8125 23.085938 25.601562 23.320312 Z M 24.792969 22.789062 C 24.078125 22.789062 23.496094 22.207031 23.496094 21.488281 C 23.496094 20.773438 24.078125 20.191406 24.792969 20.191406 C 25.511719 20.191406 26.09375 20.773438 26.09375 21.488281 C 26.09375 22.207031 25.511719 22.789062 24.792969 22.789062 Z M 20.714844 22.605469 C 20.71875 22.570312 20.722656 22.535156 20.726562 22.5 C 20.746094 22.511719 20.761719 22.523438 20.773438 22.53125 C 20.734375 22.574219 20.714844 22.601562 20.714844 22.605469 Z M 18.371094 22.320312 C 18.375 22.207031 18.386719 22.097656 18.394531 22 C 18.421875 22.101562 18.441406 22.191406 18.457031 22.28125 C 18.441406 22.3125 18.425781 22.34375 18.414062 22.375 C 18.398438 22.359375 18.382812 22.339844 18.371094 22.320312 Z M 17.398438 22.128906 C 17.449219 22.207031 17.496094 22.296875 17.546875 22.394531 C 17.507812 22.34375 17.46875 22.292969 17.429688 22.25 C 17.417969 22.207031 17.410156 22.167969 17.398438 22.128906 Z M 16.777344 21.4375 C 16.800781 21.457031 16.824219 21.476562 16.84375 21.496094 C 16.828125 21.578125 16.816406 21.660156 16.804688 21.75 C 16.800781 21.75 16.796875 21.746094 16.792969 21.742188 C 16.785156 21.636719 16.78125 21.535156 16.777344 21.4375 Z M 20.792969 20.367188 Z M 25.496094 21.488281 C 25.496094 21.542969 25.542969 21.585938 25.59375 21.585938 C 25.648438 21.585938 25.691406 21.542969 25.691406 21.488281 C 25.691406 21.4375 25.648438 21.394531 25.59375 21.394531 C 25.542969 21.394531 25.496094 21.4375 25.496094 21.488281 Z M 24.160156 20.855469 C 24.121094 20.894531 24.121094 20.953125 24.160156 20.992188 C 24.199219 21.03125 24.257812 21.03125 24.296875 20.992188 C 24.335938 20.957031 24.335938 20.894531 24.296875 20.855469 C 24.257812 20.816406 24.199219 20.816406 24.160156 20.855469 Z M 24.890625 20.691406 C 24.890625 20.636719 24.847656 20.59375 24.792969 20.59375 C 24.742188 20.59375 24.699219 20.636719 24.699219 20.691406 C 24.699219 20.742188 24.742188 20.785156 24.792969 20.785156 C 24.847656 20.785156 24.890625 20.742188 24.890625 20.691406 Z M 25.292969 21.988281 C 25.253906 22.023438 25.253906 22.085938 25.292969 22.125 C 25.328125 22.164062 25.390625 22.164062 25.429688 22.125 C 25.46875 22.085938 25.46875 22.027344 25.429688 21.988281 C 25.390625 21.949219 25.328125 21.949219 25.292969 21.988281 Z M 25.429688 20.992188 C 25.46875 20.953125 25.46875 20.894531 25.429688 20.855469 C 25.390625 20.816406 25.332031 20.816406 25.292969 20.855469 C 25.253906 20.894531 25.253906 20.953125 25.292969 20.992188 C 25.328125 21.03125 25.390625 21.03125 25.429688 20.992188 Z M 24.253906 21.488281 C 24.253906 21.789062 24.496094 22.03125 24.792969 22.03125 C 25.09375 22.03125 25.335938 21.789062 25.335938 21.488281 C 25.335938 21.191406 25.09375 20.949219 24.792969 20.949219 C 24.496094 20.949219 24.253906 21.191406 24.253906 21.488281 Z M 39.242188 19.054688 C 39.242188 18.96875 39.175781 18.898438 39.089844 18.898438 C 39.003906 18.898438 38.9375 18.96875 38.9375 19.054688 C 38.9375 19.136719 39.003906 19.207031 39.089844 19.207031 C 39.171875 19.207031 39.242188 19.136719 39.242188 19.054688 Z M 43.988281 9.078125 C 43.988281 9.25 44.128906 9.390625 44.300781 9.390625 C 44.472656 9.390625 44.609375 9.25 44.609375 9.078125 C 44.609375 8.90625 44.472656 8.769531 44.300781 8.769531 C 44.128906 8.769531 43.988281 8.90625 43.988281 9.078125 Z M 24.160156 21.988281 C 24.121094 22.023438 24.121094 22.085938 24.160156 22.125 C 24.199219 22.164062 24.257812 22.164062 24.296875 22.125 C 24.335938 22.085938 24.335938 22.027344 24.296875 21.988281 C 24.257812 21.949219 24.199219 21.949219 24.160156 21.988281 Z M 24.699219 22.289062 C 24.699219 22.34375 24.742188 22.386719 24.792969 22.386719 C 24.847656 22.386719 24.890625 22.34375 24.890625 22.289062 C 24.890625 22.238281 24.847656 22.195312 24.792969 22.195312 C 24.742188 22.195312 24.699219 22.238281 24.699219 22.289062 Z M 23.898438 21.488281 C 23.898438 21.542969 23.941406 21.585938 23.996094 21.585938 C 24.046875 21.585938 24.089844 21.542969 24.089844 21.488281 C 24.089844 21.4375 24.046875 21.394531 23.996094 21.394531 C 23.941406 21.394531 23.898438 21.4375 23.898438 21.488281 Z M 38.082031 21.109375 C 38.023438 21.167969 38.023438 21.265625 38.082031 21.328125 C 38.144531 21.386719 38.242188 21.386719 38.300781 21.328125 C 38.359375 21.265625 38.359375 21.167969 38.300781 21.109375 C 38.242188 21.050781 38.144531 21.050781 38.082031 21.109375 Z M 31.046875 14.203125 C 31.230469 14.386719 31.390625 14.519531 31.40625 14.5 C 31.421875 14.484375 31.289062 14.324219 31.109375 14.144531 C 30.925781 13.960938 30.765625 13.828125 30.75 13.84375 C 30.734375 13.863281 30.867188 14.023438 31.046875 14.203125 Z M 38.082031 19.316406 C 38.023438 19.375 38.023438 19.472656 38.082031 19.535156 C 38.144531 19.59375 38.242188 19.59375 38.300781 19.535156 C 38.359375 19.472656 38.359375 19.375 38.300781 19.316406 C 38.242188 19.257812 38.144531 19.257812 38.082031 19.316406 Z M 31.429688 14.203125 C 31.609375 14.386719 31.769531 14.519531 31.785156 14.5 C 31.804688 14.484375 31.671875 14.324219 31.488281 14.144531 C 31.308594 13.960938 31.148438 13.828125 31.128906 13.84375 C 31.113281 13.863281 31.246094 14.023438 31.429688 14.203125 Z M 29.609375 13.84375 C 29.589844 13.863281 29.726562 14.023438 29.90625 14.203125 C 30.085938 14.386719 30.246094 14.519531 30.265625 14.5 C 30.28125 14.484375 30.148438 14.324219 29.96875 14.144531 C 29.785156 13.960938 29.625 13.828125 29.609375 13.84375 Z M 38.933594 21.589844 C 38.933594 21.675781 39.003906 21.742188 39.089844 21.742188 C 39.171875 21.742188 39.242188 21.675781 39.242188 21.589844 C 39.242188 21.503906 39.171875 21.4375 39.089844 21.4375 C 39.003906 21.4375 38.933594 21.503906 38.933594 21.589844 Z M 30.285156 14.203125 C 30.46875 14.386719 30.628906 14.519531 30.644531 14.5 C 30.660156 14.484375 30.527344 14.324219 30.347656 14.144531 C 30.164062 13.960938 30.003906 13.828125 29.988281 13.84375 C 29.972656 13.863281 30.105469 14.023438 30.285156 14.203125 Z M 30.667969 14.203125 C 30.847656 14.386719 31.007812 14.519531 31.027344 14.5 C 31.042969 14.484375 30.910156 14.324219 30.726562 14.144531 C 30.546875 13.960938 30.386719 13.828125 30.371094 13.84375 C 30.351562 13.863281 30.484375 14.023438 30.667969 14.203125 Z M 37.667969 20.320312 C 37.667969 20.40625 37.734375 20.476562 37.820312 20.476562 C 37.90625 20.476562 37.972656 20.40625 37.972656 20.320312 C 37.972656 20.238281 37.90625 20.167969 37.820312 20.167969 C 37.734375 20.167969 37.667969 20.238281 37.667969 20.320312 Z M 39.875 21.109375 C 39.816406 21.167969 39.816406 21.265625 39.875 21.328125 C 39.9375 21.386719 40.035156 21.386719 40.09375 21.328125 C 40.152344 21.265625 40.152344 21.167969 40.09375 21.109375 C 40.035156 21.050781 39.9375 21.050781 39.875 21.109375 Z M 40.09375 19.535156 C 40.152344 19.472656 40.152344 19.375 40.09375 19.316406 C 40.035156 19.257812 39.9375 19.257812 39.875 19.316406 C 39.816406 19.375 39.816406 19.472656 39.875 19.535156 C 39.9375 19.59375 40.035156 19.59375 40.09375 19.535156 Z M 40.203125 20.320312 C 40.203125 20.40625 40.273438 20.476562 40.355469 20.476562 C 40.441406 20.476562 40.511719 20.40625 40.511719 20.320312 C 40.511719 20.238281 40.441406 20.167969 40.355469 20.167969 C 40.273438 20.167969 40.203125 20.238281 40.203125 20.320312 Z M 38.230469 20.320312 C 38.230469 20.796875 38.613281 21.179688 39.089844 21.179688 C 39.5625 21.179688 39.949219 20.796875 39.949219 20.320312 C 39.949219 19.847656 39.5625 19.460938 39.089844 19.460938 C 38.613281 19.460938 38.230469 19.847656 38.230469 20.320312 Z M 38.230469 20.320312 "/></g><g clip-rule="nonzero" clip-path="url(#0f3b5ab3bf)"><path style=" stroke:none;fill-rule:nonzero;fill:#ffffff;fill-opacity:1;" d="M 66.253906 5.253906 L 124.816406 5.253906 L 124.816406 19.058594 L 66.253906 19.058594 Z M 66.253906 5.253906 "/></g><g clip-rule="nonzero" clip-path="url(#e71c8b4477)"><path style="fill:none;stroke-width:1.383712;stroke-linecap:butt;stroke-linejoin:miter;stroke:#29853a;stroke-opacity:1;stroke-miterlimit:4;" d="M 0.00129186 0.000618637 L 55.828418 0.000618637 L 55.828418 13.155698 L 0.00129186 13.155698 Z M 0.00129186 0.000618637 " transform="matrix(1.036612,0,0,1.036612,66.252567,5.253265)"/></g><g style="fill:#29853a;fill-opacity:1;"><g transform="translate(69.048604, 13.887944)"><path style="stroke:none" d="M 5.171875 -2.96875 L 5.171875 -1.8125 C 5.035156 -1.1875 4.734375 -0.710938 4.265625 -0.390625 C 3.804688 -0.0664062 3.296875 0.09375 2.734375 0.09375 C 2.015625 0.09375 1.398438 -0.171875 0.890625 -0.703125 C 0.390625 -1.242188 0.140625 -1.890625 0.140625 -2.640625 C 0.140625 -3.410156 0.382812 -4.0625 0.875 -4.59375 C 1.375 -5.125 1.992188 -5.390625 2.734375 -5.390625 C 3.585938 -5.390625 4.265625 -5.085938 4.765625 -4.484375 L 3.984375 -3.625 C 3.703125 -4.070312 3.304688 -4.296875 2.796875 -4.296875 C 2.421875 -4.296875 2.101562 -4.132812 1.84375 -3.8125 C 1.582031 -3.488281 1.453125 -3.097656 1.453125 -2.640625 C 1.453125 -2.191406 1.582031 -1.804688 1.84375 -1.484375 C 2.101562 -1.171875 2.421875 -1.015625 2.796875 -1.015625 C 3.109375 -1.015625 3.378906 -1.109375 3.609375 -1.296875 C 3.835938 -1.484375 3.953125 -1.726562 3.953125 -2.03125 L 2.734375 -2.03125 L 2.734375 -2.96875 Z M 5.171875 -2.96875 "/></g></g><g style="fill:#29853a;fill-opacity:1;"><g transform="translate(75.275303, 13.887944)"><path style="stroke:none" d="M 0.390625 -5.296875 L 2.28125 -5.296875 C 2.789062 -5.296875 3.203125 -5.160156 3.515625 -4.890625 C 3.835938 -4.617188 4 -4.226562 4 -3.71875 C 4 -3.332031 3.898438 -3.003906 3.703125 -2.734375 C 3.515625 -2.472656 3.253906 -2.289062 2.921875 -2.1875 L 4.75 0 L 3.203125 0 L 1.59375 -2.09375 L 1.59375 0 L 0.390625 0 Z M 1.59375 -2.953125 L 1.734375 -2.953125 C 1.847656 -2.953125 1.941406 -2.953125 2.015625 -2.953125 C 2.085938 -2.953125 2.171875 -2.960938 2.265625 -2.984375 C 2.367188 -3.015625 2.453125 -3.050781 2.515625 -3.09375 C 2.578125 -3.144531 2.628906 -3.21875 2.671875 -3.3125 C 2.710938 -3.40625 2.734375 -3.515625 2.734375 -3.640625 C 2.734375 -3.765625 2.710938 -3.875 2.671875 -3.96875 C 2.628906 -4.0625 2.578125 -4.128906 2.515625 -4.171875 C 2.453125 -4.222656 2.367188 -4.257812 2.265625 -4.28125 C 2.171875 -4.3125 2.085938 -4.328125 2.015625 -4.328125 C 1.941406 -4.328125 1.847656 -4.328125 1.734375 -4.328125 L 1.59375 -4.328125 Z M 1.59375 -2.953125 "/></g></g><g style="fill:#29853a;fill-opacity:1;"><g transform="translate(80.77589, 13.887944)"><path style="stroke:none" d="M 3.421875 -5.296875 L 3.421875 -4.234375 L 1.59375 -4.234375 L 1.59375 -3.1875 L 3.34375 -3.1875 L 3.34375 -2.125 L 1.59375 -2.125 L 1.59375 -1.0625 L 3.421875 -1.0625 L 3.421875 0 L 0.390625 0 L 0.390625 -5.296875 Z M 3.421875 -5.296875 "/></g></g><g style="fill:#29853a;fill-opacity:1;"><g transform="translate(85.402573, 13.887944)"><path style="stroke:none" d="M 3.421875 -5.296875 L 3.421875 -4.234375 L 1.59375 -4.234375 L 1.59375 -3.1875 L 3.34375 -3.1875 L 3.34375 -2.125 L 1.59375 -2.125 L 1.59375 -1.0625 L 3.421875 -1.0625 L 3.421875 0 L 0.390625 0 L 0.390625 -5.296875 Z M 3.421875 -5.296875 "/></g></g><g style="fill:#29853a;fill-opacity:1;"><g transform="translate(90.029255, 13.887944)"><path style="stroke:none" d="M 1.59375 -3.28125 L 1.59375 0 L 0.390625 0 L 0.390625 -5.296875 L 1.59375 -5.296875 L 3.703125 -2.015625 L 3.71875 -2.015625 L 3.71875 -5.296875 L 4.921875 -5.296875 L 4.921875 0 L 3.71875 0 L 1.609375 -3.28125 Z M 1.59375 -3.28125 "/></g></g><g style="fill:#29853a;fill-opacity:1;"><g transform="translate(96.236678, 13.887944)"><path style="stroke:none" d="M 2.34375 -5.390625 C 2.625 -5.390625 2.898438 -5.347656 3.171875 -5.265625 C 3.453125 -5.179688 3.65625 -5.097656 3.78125 -5.015625 L 3.984375 -4.890625 L 3.5 -3.9375 C 3.457031 -3.957031 3.398438 -3.988281 3.328125 -4.03125 C 3.265625 -4.070312 3.140625 -4.125 2.953125 -4.1875 C 2.765625 -4.257812 2.585938 -4.296875 2.421875 -4.296875 C 2.222656 -4.296875 2.066406 -4.253906 1.953125 -4.171875 C 1.847656 -4.085938 1.796875 -3.972656 1.796875 -3.828125 C 1.796875 -3.753906 1.820312 -3.6875 1.875 -3.625 C 1.925781 -3.5625 2.007812 -3.492188 2.125 -3.421875 C 2.25 -3.347656 2.359375 -3.289062 2.453125 -3.25 C 2.546875 -3.207031 2.691406 -3.144531 2.890625 -3.0625 C 3.234375 -2.914062 3.523438 -2.71875 3.765625 -2.46875 C 4.015625 -2.21875 4.140625 -1.929688 4.140625 -1.609375 C 4.140625 -1.304688 4.082031 -1.039062 3.96875 -0.8125 C 3.863281 -0.582031 3.710938 -0.40625 3.515625 -0.28125 C 3.328125 -0.15625 3.117188 -0.0625 2.890625 0 C 2.660156 0.0625 2.410156 0.09375 2.140625 0.09375 C 1.910156 0.09375 1.679688 0.0664062 1.453125 0.015625 C 1.234375 -0.0234375 1.046875 -0.078125 0.890625 -0.140625 C 0.742188 -0.210938 0.609375 -0.285156 0.484375 -0.359375 C 0.367188 -0.429688 0.285156 -0.488281 0.234375 -0.53125 L 0.140625 -0.609375 L 0.75 -1.625 C 0.800781 -1.570312 0.867188 -1.515625 0.953125 -1.453125 C 1.046875 -1.390625 1.207031 -1.300781 1.4375 -1.1875 C 1.664062 -1.070312 1.867188 -1.015625 2.046875 -1.015625 C 2.554688 -1.015625 2.8125 -1.191406 2.8125 -1.546875 C 2.8125 -1.617188 2.789062 -1.6875 2.75 -1.75 C 2.71875 -1.8125 2.65625 -1.867188 2.5625 -1.921875 C 2.46875 -1.984375 2.382812 -2.03125 2.3125 -2.0625 C 2.25 -2.101562 2.132812 -2.160156 1.96875 -2.234375 C 1.8125 -2.316406 1.695312 -2.378906 1.625 -2.421875 C 1.300781 -2.578125 1.050781 -2.769531 0.875 -3 C 0.695312 -3.238281 0.609375 -3.5 0.609375 -3.78125 C 0.609375 -4.25 0.78125 -4.632812 1.125 -4.9375 C 1.476562 -5.238281 1.882812 -5.390625 2.34375 -5.390625 Z M 2.34375 -5.390625 "/></g></g><g style="fill:#29853a;fill-opacity:1;"><g transform="translate(101.454533, 13.887944)"><path style="stroke:none" d="M 3.203125 -1.09375 C 3.390625 -1.09375 3.566406 -1.117188 3.734375 -1.171875 C 3.910156 -1.234375 4.039062 -1.285156 4.125 -1.328125 L 4.25 -1.421875 L 4.765625 -0.390625 C 4.742188 -0.378906 4.71875 -0.363281 4.6875 -0.34375 C 4.65625 -0.320312 4.582031 -0.28125 4.46875 -0.21875 C 4.363281 -0.164062 4.25 -0.113281 4.125 -0.0625 C 4 -0.0195312 3.835938 0.015625 3.640625 0.046875 C 3.441406 0.078125 3.234375 0.09375 3.015625 0.09375 C 2.523438 0.09375 2.054688 -0.0234375 1.609375 -0.265625 C 1.171875 -0.503906 0.816406 -0.835938 0.546875 -1.265625 C 0.273438 -1.691406 0.140625 -2.148438 0.140625 -2.640625 C 0.140625 -3.015625 0.21875 -3.367188 0.375 -3.703125 C 0.539062 -4.046875 0.753906 -4.335938 1.015625 -4.578125 C 1.273438 -4.828125 1.582031 -5.023438 1.9375 -5.171875 C 2.289062 -5.316406 2.648438 -5.390625 3.015625 -5.390625 C 3.359375 -5.390625 3.675781 -5.347656 3.96875 -5.265625 C 4.257812 -5.191406 4.460938 -5.113281 4.578125 -5.03125 L 4.765625 -4.90625 L 4.25 -3.875 C 4.21875 -3.90625 4.171875 -3.9375 4.109375 -3.96875 C 4.046875 -4.007812 3.925781 -4.054688 3.75 -4.109375 C 3.570312 -4.171875 3.390625 -4.203125 3.203125 -4.203125 C 2.910156 -4.203125 2.648438 -4.15625 2.421875 -4.0625 C 2.191406 -3.96875 2.007812 -3.84375 1.875 -3.6875 C 1.738281 -3.539062 1.632812 -3.375 1.5625 -3.1875 C 1.488281 -3.007812 1.453125 -2.832031 1.453125 -2.65625 C 1.453125 -2.25 1.601562 -1.882812 1.90625 -1.5625 C 2.207031 -1.25 2.640625 -1.09375 3.203125 -1.09375 Z M 3.203125 -1.09375 "/></g></g><g style="fill:#29853a;fill-opacity:1;"><g transform="translate(107.192873, 13.887944)"><path style="stroke:none" d="M 3.078125 -5.296875 L 5.21875 0 L 3.921875 0 L 3.53125 -1.0625 L 1.515625 -1.0625 L 1.125 0 L -0.1875 0 L 1.953125 -5.296875 Z M 3.109375 -2.125 L 2.53125 -3.65625 L 2.515625 -3.65625 L 1.921875 -2.125 Z M 3.109375 -2.125 "/></g></g><g style="fill:#29853a;fill-opacity:1;"><g transform="translate(113.130415, 13.887944)"><path style="stroke:none" d="M 0.390625 -5.296875 L 2.3125 -5.296875 C 2.851562 -5.296875 3.289062 -5.15625 3.625 -4.875 C 3.957031 -4.601562 4.125 -4.203125 4.125 -3.671875 C 4.125 -3.140625 3.953125 -2.722656 3.609375 -2.421875 C 3.273438 -2.117188 2.84375 -1.96875 2.3125 -1.96875 L 1.59375 -1.96875 L 1.59375 0 L 0.390625 0 Z M 1.59375 -2.921875 L 1.9375 -2.921875 C 2.207031 -2.921875 2.425781 -2.972656 2.59375 -3.078125 C 2.769531 -3.191406 2.859375 -3.375 2.859375 -3.625 C 2.859375 -3.875 2.769531 -4.050781 2.59375 -4.15625 C 2.425781 -4.269531 2.207031 -4.328125 1.9375 -4.328125 L 1.59375 -4.328125 Z M 1.59375 -2.921875 "/></g></g><g style="fill:#29853a;fill-opacity:1;"><g transform="translate(118.309713, 13.887944)"><path style="stroke:none" d="M 3.421875 -5.296875 L 3.421875 -4.234375 L 1.59375 -4.234375 L 1.59375 -3.1875 L 3.34375 -3.1875 L 3.34375 -2.125 L 1.59375 -2.125 L 1.59375 -1.0625 L 3.421875 -1.0625 L 3.421875 0 L 0.390625 0 L 0.390625 -5.296875 Z M 3.421875 -5.296875 "/></g></g><g style="fill:#29853a;fill-opacity:1;"><g transform="translate(75.121406, 22.763443)"><path style="stroke:none" d="M 0.5625 -0.25 L 1.390625 -0.25 L 1.390625 0 L 0.265625 0 L 0.265625 -2.359375 L 0.5625 -2.359375 Z M 0.5625 -0.25 "/></g></g><g style="fill:#29853a;fill-opacity:1;"><g transform="translate(79.308114, 22.763443)"><path style="stroke:none" d="M 1.65625 -0.53125 L 0.625 -0.53125 L 0.4375 0 L 0.109375 0 L 0.96875 -2.34375 L 1.328125 -2.34375 L 2.171875 0 L 1.84375 0 Z M 1.5625 -0.78125 L 1.140625 -1.96875 L 0.71875 -0.78125 Z M 1.5625 -0.78125 "/></g></g><g style="fill:#29853a;fill-opacity:1;"><g transform="translate(84.316707, 22.763443)"><path style="stroke:none" d="M 3.234375 -2.359375 L 2.546875 0 L 2.203125 0 L 1.65625 -1.90625 L 1.078125 0 L 0.734375 0 L 0.078125 -2.359375 L 0.40625 -2.359375 L 0.921875 -0.359375 L 1.484375 -2.359375 L 1.84375 -2.359375 L 2.375 -0.359375 L 2.90625 -2.359375 Z M 3.234375 -2.359375 "/></g></g><g style="fill:#29853a;fill-opacity:1;"><g transform="translate(90.350961, 22.763443)"><path style="stroke:none" d="M 2.125 0 L 1.8125 0 L 0.5625 -1.875 L 0.5625 0 L 0.265625 0 L 0.265625 -2.359375 L 0.5625 -2.359375 L 1.8125 -0.484375 L 1.8125 -2.359375 L 2.125 -2.359375 Z M 2.125 0 "/></g></g><g style="fill:#29853a;fill-opacity:1;"><g transform="translate(95.458045, 22.763443)"><path style="stroke:none" d=""/></g></g><g style="fill:#29853a;fill-opacity:1;"><g transform="translate(99.084374, 22.763443)"><path style="stroke:none" d="M 0.140625 -1.1875 C 0.140625 -1.414062 0.191406 -1.617188 0.296875 -1.796875 C 0.398438 -1.984375 0.539062 -2.128906 0.71875 -2.234375 C 0.90625 -2.335938 1.109375 -2.390625 1.328125 -2.390625 C 1.585938 -2.390625 1.8125 -2.328125 2 -2.203125 C 2.1875 -2.078125 2.328125 -1.898438 2.421875 -1.671875 L 2.046875 -1.671875 C 1.984375 -1.816406 1.890625 -1.925781 1.765625 -2 C 1.640625 -2.082031 1.492188 -2.125 1.328125 -2.125 C 1.160156 -2.125 1.007812 -2.082031 0.875 -2 C 0.75 -1.925781 0.648438 -1.816406 0.578125 -1.671875 C 0.503906 -1.535156 0.46875 -1.375 0.46875 -1.1875 C 0.46875 -1 0.503906 -0.832031 0.578125 -0.6875 C 0.648438 -0.550781 0.75 -0.441406 0.875 -0.359375 C 1.007812 -0.285156 1.160156 -0.25 1.328125 -0.25 C 1.492188 -0.25 1.640625 -0.285156 1.765625 -0.359375 C 1.890625 -0.429688 1.984375 -0.539062 2.046875 -0.6875 L 2.421875 -0.6875 C 2.328125 -0.457031 2.1875 -0.28125 2 -0.15625 C 1.8125 -0.0390625 1.585938 0.015625 1.328125 0.015625 C 1.109375 0.015625 0.90625 -0.03125 0.71875 -0.125 C 0.539062 -0.226562 0.398438 -0.375 0.296875 -0.5625 C 0.191406 -0.75 0.140625 -0.957031 0.140625 -1.1875 Z M 0.140625 -1.1875 "/></g></g><g style="fill:#29853a;fill-opacity:1;"><g transform="translate(104.425796, 22.763443)"><path style="stroke:none" d="M 1.65625 -0.53125 L 0.625 -0.53125 L 0.4375 0 L 0.109375 0 L 0.96875 -2.34375 L 1.328125 -2.34375 L 2.171875 0 L 1.84375 0 Z M 1.5625 -0.78125 L 1.140625 -1.96875 L 0.71875 -0.78125 Z M 1.5625 -0.78125 "/></g></g><g style="fill:#29853a;fill-opacity:1;"><g transform="translate(109.434389, 22.763443)"><path style="stroke:none" d="M 1.5 0 L 0.9375 -0.96875 L 0.5625 -0.96875 L 0.5625 0 L 0.265625 0 L 0.265625 -2.359375 L 1.03125 -2.359375 C 1.207031 -2.359375 1.351562 -2.328125 1.46875 -2.265625 C 1.59375 -2.210938 1.6875 -2.132812 1.75 -2.03125 C 1.8125 -1.925781 1.84375 -1.804688 1.84375 -1.671875 C 1.84375 -1.503906 1.796875 -1.359375 1.703125 -1.234375 C 1.609375 -1.109375 1.46875 -1.023438 1.28125 -0.984375 L 1.875 0 Z M 0.5625 -1.21875 L 1.03125 -1.21875 C 1.195312 -1.21875 1.320312 -1.257812 1.40625 -1.34375 C 1.488281 -1.425781 1.53125 -1.535156 1.53125 -1.671875 C 1.53125 -1.804688 1.488281 -1.910156 1.40625 -1.984375 C 1.320312 -2.066406 1.195312 -2.109375 1.03125 -2.109375 L 0.5625 -2.109375 Z M 0.5625 -1.21875 "/></g></g><g style="fill:#29853a;fill-opacity:1;"><g transform="translate(114.218831, 22.763443)"><path style="stroke:none" d="M 0.5625 -2.109375 L 0.5625 -1.328125 L 1.4375 -1.328125 L 1.4375 -1.0625 L 0.5625 -1.0625 L 0.5625 -0.25 L 1.53125 -0.25 L 1.53125 0 L 0.265625 0 L 0.265625 -2.359375 L 1.53125 -2.359375 L 1.53125 -2.109375 Z M 0.5625 -2.109375 "/></g></g></g></svg>